<svg width="148" height="70" fill="none" xmlns="http://www.w3.org/2000/svg"><path d="M34.855 44.764c-.79-.073-1.712-.11-2.767-.11H31l5.989-16.897c.266-.758.399-1.197.399-1.317 0-.13-.005-.208-.014-.236l.014-.028c.596.028 1.23.042 1.9.042.55 0 1.211-.01 1.982-.028l.014.028a.347.347 0 0 0-.028.152c0 .176.138.643.413 1.4l6.113 16.925c-.184-.009-.4-.014-.647-.014l-.716-.027h-2.754l-1.294-3.992H36.15l-1.294 4.102Zm6.442-7.43L39.22 30.89l-2.024 6.446h4.102ZM52.861 43.101c0 .795.019 1.312.055 1.553H49.42V24h3.441v19.101ZM66.243 43.794c-1.304.712-2.483 1.068-3.538 1.068-1.056 0-1.96-.098-2.712-.291-.753-.204-1.391-.5-1.914-.888-1.065-.785-1.597-1.922-1.597-3.41 0-1.33.652-2.44 1.955-3.326 1.413-.961 3.331-1.442 5.754-1.442l.551.014c.11.01.234.019.372.028.137 0 .261.009.371.027-.073-1.478-.706-2.342-1.9-2.592a6.141 6.141 0 0 0-1.266-.124c-.44 0-.876.041-1.308.124a9.337 9.337 0 0 0-1.239.305c-.89.287-1.528.615-1.913.985l-.042-.028-.413-3.064c1.625-.859 3.4-1.289 5.328-1.289 2.992 0 4.906 1.086 5.74 3.258.267.693.4 1.474.4 2.342v5.018c0 1.072.376 1.802 1.129 2.19L67.509 45a3.246 3.246 0 0 1-1.266-1.206Zm-.744-5.724a4.199 4.199 0 0 0-.77-.07h-.552c-2.028 0-3.317.453-3.868 1.359-.165.268-.248.55-.248.845 0 .296.05.56.152.79.11.222.289.407.537.555.477.277 1.184.416 2.12.416.945 0 1.826-.227 2.643-.68a3.538 3.538 0 0 1-.014-.318v-2.898ZM78.027 44.862c-2.588 0-4.539-.476-5.851-1.428.018-.277.046-.592.082-.943l.124-.998.138-1.22c.018-.166.032-.254.041-.263.01-.018.083.056.22.222.138.157.4.351.785.582.386.231.83.434 1.336.61 1.092.379 2.23.568 3.414.568 1.588 0 2.382-.531 2.382-1.594a.816.816 0 0 0-.455-.762c-.541-.277-1.34-.485-2.395-.624-1.046-.148-1.905-.36-2.575-.638-.67-.277-1.216-.61-1.638-.998-.78-.73-1.17-1.686-1.17-2.869 0-1.441.55-2.573 1.652-3.396 1.092-.813 2.602-1.22 4.53-1.22 1.908 0 3.537.546 4.886 1.636-.064.24-.133.471-.206.693-.211.61-.367 1.049-.468 1.317l-.317.818c-.018.074-.032.11-.041.11-.019 0-.092-.097-.22-.29-.579-.675-1.478-1.119-2.699-1.331a5.987 5.987 0 0 0-1.156-.111c-1.67 0-2.506.508-2.506 1.525 0 .35.175.619.524.804.651.35 1.541.61 2.67.776 1.138.166 2.001.392 2.588.679.588.277 1.06.614 1.418 1.012.661.72.992 1.677.992 2.87 0 1.302-.519 2.36-1.556 3.173-1.083.86-2.593 1.29-4.53 1.29ZM90.885 42.824c0 .795.032 1.404.096 1.83h-3.47V24.832h3.374v12.142l6.291-6.805h4.089l-5.424 5.752 3.097 4.255a78.556 78.556 0 0 0 1.515 2.357l.908 1.289c.275.36.505.638.688.832h-2.175c-.807 0-1.5.069-2.078.208L93.5 38.54l-2.615 2.8v1.483ZM113.242 43.794c-1.304.712-2.483 1.068-3.538 1.068-1.056 0-1.96-.098-2.712-.291-.753-.204-1.391-.5-1.914-.888-1.064-.785-1.597-1.922-1.597-3.41 0-1.33.652-2.44 1.955-3.326 1.413-.961 3.332-1.442 5.754-1.442l.551.014c.11.01.234.019.372.028.138 0 .261.009.372.027-.074-1.478-.707-2.342-1.9-2.592a6.145 6.145 0 0 0-1.267-.124c-.44 0-.876.041-1.308.124a9.352 9.352 0 0 0-1.239.305c-.89.287-1.528.615-1.913.985l-.041-.028-.413-3.064c1.624-.859 3.4-1.289 5.327-1.289 2.992 0 4.906 1.086 5.741 3.258.266.693.399 1.474.399 2.342v5.018c0 1.072.376 1.802 1.129 2.19L114.508 45a3.244 3.244 0 0 1-1.266-1.206Zm-.744-5.724a4.186 4.186 0 0 0-.771-.07h-.55c-2.029 0-3.318.453-3.869 1.359-.165.268-.247.55-.247.845 0 .296.05.56.151.79.11.222.289.407.537.555.477.277 1.184.416 2.12.416.945 0 1.826-.227 2.643-.68a3.611 3.611 0 0 1-.014-.318v-2.898Z" fill="#333"/></svg>